<svg xmlns="http://www.w3.org/2000/svg" viewBox="0 0 1024 1024">
  <defs>
    <linearGradient id="bg" x1="0" y1="0" x2="1" y2="1">
      <stop offset="0%" stop-color="#0b1625"/>
      <stop offset="52%" stop-color="#10263d"/>
      <stop offset="100%" stop-color="#09131f"/>
    </linearGradient>
    <radialGradient id="flare" cx="48%" cy="30%" r="62%">
      <stop offset="0%" stop-color="#38bdf8" stop-opacity="0.18"/>
      <stop offset="55%" stop-color="#38bdf8" stop-opacity="0.05"/>
      <stop offset="100%" stop-color="#38bdf8" stop-opacity="0"/>
    </radialGradient>
    <linearGradient id="ember" x1="0" y1="0" x2="1" y2="1">
      <stop offset="0%" stop-color="#ff8a3d"/>
      <stop offset="100%" stop-color="#facc15"/>
    </linearGradient>
    <linearGradient id="cyan" x1="0" y1="0" x2="1" y2="1">
      <stop offset="0%" stop-color="#67e8f9"/>
      <stop offset="100%" stop-color="#38bdf8"/>
    </linearGradient>
    <filter id="tileShadow" x="-20%" y="-20%" width="140%" height="150%">
      <feDropShadow dx="0" dy="18" stdDeviation="20" flood-color="#020617" flood-opacity="0.24"/>
    </filter>
    <filter id="cardShadow" x="-30%" y="-30%" width="180%" height="180%">
      <feDropShadow dx="0" dy="12" stdDeviation="16" flood-color="#020617" flood-opacity="0.34"/>
    </filter>
  </defs>

  <g filter="url(#tileShadow)">
    <rect x="54" y="54" width="916" height="916" rx="232" fill="url(#bg)"/>
    <rect x="54" y="54" width="916" height="916" rx="232" fill="url(#flare)"/>
  </g>

  <g filter="url(#cardShadow)">
    <rect x="198" y="248" width="628" height="460" rx="40" fill="#0c1626"/>
    <path d="M198 288c0-22 18-40 40-40h548c22 0 40 18 40 40v48H198z" fill="#181f38"/>
  </g>

  <circle cx="246" cy="280" r="9" fill="#ff6b5e"/>
  <circle cx="276" cy="280" r="9" fill="#ffbf3c"/>
  <circle cx="306" cy="280" r="9" fill="#35d059"/>

  <path d="M290 394l92 92-92 92" fill="none" stroke="url(#ember)" stroke-width="40" stroke-linecap="round" stroke-linejoin="round"/>

  <rect x="458" y="392" width="218" height="18" rx="9" fill="url(#cyan)"/>
  <rect x="458" y="438" width="164" height="16" rx="8" fill="#8d98ad" opacity="0.28"/>
  <rect x="458" y="478" width="232" height="16" rx="8" fill="#c8833d" opacity="0.92"/>
  <rect x="458" y="518" width="186" height="16" rx="8" fill="#8d98ad" opacity="0.18"/>

  <rect x="278" y="612" width="150" height="30" rx="15" fill="url(#ember)"/>
  <rect x="446" y="612" width="100" height="30" rx="15" fill="#1d3655"/>
  <rect x="564" y="612" width="100" height="30" rx="15" fill="#17304b"/>
</svg>
