<svg xmlns="http://www.w3.org/2000/svg" viewBox="0 0 1024 1024">
  <defs>
    <linearGradient id="bg" x1="0" y1="0" x2="1" y2="1">
      <stop offset="0%" stop-color="#09111d"/>
      <stop offset="48%" stop-color="#102039"/>
      <stop offset="100%" stop-color="#07111f"/>
    </linearGradient>
    <radialGradient id="flare" cx="48%" cy="30%" r="72%">
      <stop offset="0%" stop-color="#38bdf8" stop-opacity="0.38"/>
      <stop offset="45%" stop-color="#14b8a6" stop-opacity="0.18"/>
      <stop offset="100%" stop-color="#07111f" stop-opacity="0"/>
    </radialGradient>
    <linearGradient id="ember" x1="0" y1="0" x2="1" y2="1">
      <stop offset="0%" stop-color="#ff8c4b"/>
      <stop offset="52%" stop-color="#f97316"/>
      <stop offset="100%" stop-color="#facc15"/>
    </linearGradient>
    <linearGradient id="ice" x1="0" y1="0" x2="1" y2="1">
      <stop offset="0%" stop-color="#67e8f9"/>
      <stop offset="100%" stop-color="#38bdf8"/>
    </linearGradient>
    <filter id="softGlow" x="-25%" y="-25%" width="150%" height="150%">
      <feGaussianBlur stdDeviation="24"/>
    </filter>
    <filter id="shadow" x="-20%" y="-20%" width="140%" height="140%">
      <feDropShadow dx="0" dy="20" stdDeviation="28" flood-color="#020617" flood-opacity="0.5"/>
    </filter>
  </defs>

  <rect width="1024" height="1024" rx="232" fill="url(#bg)"/>
  <rect width="1024" height="1024" rx="232" fill="url(#flare)"/>

  <g opacity="0.1">
    <path d="M118 238h788" stroke="#fff" stroke-width="2"/>
    <path d="M118 786h788" stroke="#fff" stroke-width="2"/>
    <path d="M238 118v788" stroke="#fff" stroke-width="2"/>
    <path d="M786 118v788" stroke="#fff" stroke-width="2"/>
  </g>

  <circle cx="524" cy="354" r="206" fill="#38bdf8" opacity="0.16" filter="url(#softGlow)"/>
  <circle cx="626" cy="696" r="172" fill="#f97316" opacity="0.14" filter="url(#softGlow)"/>

  <g filter="url(#shadow)">
    <rect x="170" y="212" width="684" height="564" rx="42" fill="#0b1527" stroke="rgba(255,255,255,0.10)" stroke-width="3"/>
    <rect x="170" y="212" width="684" height="72" rx="42" fill="#121f35"/>
    <rect x="170" y="246" width="684" height="38" fill="#121f35"/>
  </g>

  <circle cx="224" cy="248" r="10" fill="#ff5f57"/>
  <circle cx="256" cy="248" r="10" fill="#febc2e"/>
  <circle cx="288" cy="248" r="10" fill="#28c840"/>

  <path d="M270 400l86 86-86 86" fill="none" stroke="url(#ember)" stroke-width="42" stroke-linecap="round" stroke-linejoin="round"/>
  <path d="M450 586h142" fill="none" stroke="url(#ice)" stroke-width="38" stroke-linecap="round"/>

  <rect x="450" y="370" width="232" height="18" rx="9" fill="#67e8f9" opacity="0.95"/>
  <rect x="450" y="416" width="172" height="16" rx="8" fill="#fff" opacity="0.17"/>
  <rect x="450" y="454" width="244" height="16" rx="8" fill="#fb923c" opacity="0.52"/>
  <rect x="450" y="492" width="196" height="16" rx="8" fill="#fff" opacity="0.12"/>

  <g opacity="0.9">
    <rect x="246" y="670" width="156" height="34" rx="17" fill="url(#ember)"/>
    <rect x="420" y="670" width="110" height="34" rx="17" fill="#17304b"/>
    <rect x="548" y="670" width="110" height="34" rx="17" fill="#12253c"/>
  </g>

  <g transform="translate(742 708)">
    <circle cx="0" cy="0" r="78" fill="#0d1a2c" stroke="rgba(255,255,255,0.1)" stroke-width="3"/>
    <path d="M-38 -6c0-33 24-58 58-58 22 0 40 9 56 24l-28 30c-9-9-16-13-26-13-16 0-28 9-28 21 0 10 7 16 24 20l12 3c35 8 54 28 54 57 0 37-29 63-78 63-37 0-64-12-83-34l30-31c12 13 28 21 47 21 18 0 31-8 31-21 0-11-7-17-26-22l-12-3c-34-8-51-25-51-57z" fill="url(#ember)"/>
  </g>
</svg>
