<svg xmlns="http://www.w3.org/2000/svg" viewBox="0 0 1024 1024">
  <defs>
    <radialGradient id="disc" cx="38%" cy="28%" r="80%">
      <stop offset="0%" stop-color="#173754"/>
      <stop offset="58%" stop-color="#0f2137"/>
      <stop offset="100%" stop-color="#09121c"/>
    </radialGradient>
    <radialGradient id="halo" cx="50%" cy="50%" r="50%">
      <stop offset="0%" stop-color="#38bdf8" stop-opacity="0.18"/>
      <stop offset="100%" stop-color="#38bdf8" stop-opacity="0"/>
    </radialGradient>
    <linearGradient id="ember" x1="0" y1="0" x2="1" y2="1">
      <stop offset="0%" stop-color="#ff8a3d"/>
      <stop offset="100%" stop-color="#facc15"/>
    </linearGradient>
    <linearGradient id="cyan" x1="0" y1="0" x2="1" y2="1">
      <stop offset="0%" stop-color="#67e8f9"/>
      <stop offset="100%" stop-color="#38bdf8"/>
    </linearGradient>
    <filter id="discShadow" x="-30%" y="-30%" width="160%" height="180%">
      <feDropShadow dx="0" dy="24" stdDeviation="28" flood-color="#020617" flood-opacity="0.32"/>
    </filter>
    <filter id="cardShadow" x="-30%" y="-30%" width="180%" height="180%">
      <feDropShadow dx="0" dy="10" stdDeviation="14" flood-color="#020617" flood-opacity="0.36"/>
    </filter>
  </defs>

  <g filter="url(#discShadow)">
    <circle cx="512" cy="512" r="324" fill="url(#disc)"/>
    <circle cx="512" cy="512" r="324" fill="url(#halo)"/>
  </g>

  <g filter="url(#cardShadow)">
    <rect x="280" y="322" width="464" height="336" rx="28" fill="#0c1626"/>
    <path d="M280 350c0-15 13-28 28-28h408c15 0 28 13 28 28v34H280z" fill="#181f38"/>
  </g>

  <circle cx="322" cy="338" r="6.5" fill="#ff6b5e"/>
  <circle cx="346" cy="338" r="6.5" fill="#ffbf3c"/>
  <circle cx="370" cy="338" r="6.5" fill="#35d059"/>

  <path d="M374 430l72 64-72 64" fill="none" stroke="url(#ember)" stroke-width="30" stroke-linecap="round" stroke-linejoin="round"/>

  <rect x="500" y="428" width="156" height="15" rx="7.5" fill="url(#cyan)"/>
  <rect x="500" y="466" width="124" height="13" rx="6.5" fill="#8d98ad" opacity="0.26"/>
  <rect x="500" y="500" width="168" height="13" rx="6.5" fill="#c8833d" opacity="0.9"/>
  <rect x="500" y="534" width="138" height="13" rx="6.5" fill="#8d98ad" opacity="0.16"/>

  <rect x="360" y="590" width="116" height="24" rx="12" fill="url(#ember)"/>
  <rect x="490" y="590" width="76" height="24" rx="12" fill="#1d3655"/>
  <rect x="580" y="590" width="76" height="24" rx="12" fill="#17304b"/>
</svg>
