<svg xmlns="http://www.w3.org/2000/svg" viewBox="0 0 1024 1024">
  <defs>
    <radialGradient id="disc" cx="38%" cy="28%" r="80%">
      <stop offset="0%" stop-color="#173754"/>
      <stop offset="58%" stop-color="#0f2137"/>
      <stop offset="100%" stop-color="#09121c"/>
    </radialGradient>
    <radialGradient id="halo" cx="50%" cy="50%" r="50%">
      <stop offset="0%" stop-color="#38bdf8" stop-opacity="0.18"/>
      <stop offset="100%" stop-color="#38bdf8" stop-opacity="0"/>
    </radialGradient>
    <linearGradient id="ember" x1="0" y1="0" x2="1" y2="1">
      <stop offset="0%" stop-color="#ff8a3d"/>
      <stop offset="100%" stop-color="#facc15"/>
    </linearGradient>
    <linearGradient id="cyan" x1="0" y1="0" x2="1" y2="1">
      <stop offset="0%" stop-color="#67e8f9"/>
      <stop offset="100%" stop-color="#38bdf8"/>
    </linearGradient>
    <filter id="discShadow" x="-30%" y="-30%" width="160%" height="180%">
      <feDropShadow dx="0" dy="18" stdDeviation="22" flood-color="#020617" flood-opacity="0.26"/>
    </filter>
    <filter id="cardShadow" x="-30%" y="-30%" width="180%" height="180%">
      <feDropShadow dx="0" dy="10" stdDeviation="14" flood-color="#020617" flood-opacity="0.36"/>
    </filter>
  </defs>

  <g filter="url(#discShadow)">
    <circle cx="512" cy="512" r="322" fill="url(#disc)"/>
    <circle cx="512" cy="512" r="322" fill="url(#halo)"/>
  </g>

  <g filter="url(#cardShadow)">
    <rect x="300" y="346" width="424" height="304" rx="26" fill="#0c1626"/>
    <path d="M300 374c0-14 12-26 26-26h372c14 0 26 12 26 26v31H300z" fill="#181f38"/>
  </g>

  <circle cx="340" cy="363" r="6" fill="#ff6b5e"/>
  <circle cx="363" cy="363" r="6" fill="#ffbf3c"/>
  <circle cx="386" cy="363" r="6" fill="#35d059"/>

  <path d="M390 438l62 56-62 56" fill="none" stroke="url(#ember)" stroke-width="28" stroke-linecap="round" stroke-linejoin="round"/>

  <rect x="496" y="434" width="148" height="14" rx="7" fill="url(#cyan)"/>
  <rect x="496" y="468" width="116" height="12" rx="6" fill="#8d98ad" opacity="0.26"/>
  <rect x="496" y="500" width="160" height="12" rx="6" fill="#c8833d" opacity="0.9"/>
  <rect x="496" y="532" width="132" height="12" rx="6" fill="#8d98ad" opacity="0.16"/>

  <rect x="392" y="592" width="104" height="22" rx="11" fill="url(#ember)"/>
  <rect x="508" y="592" width="66" height="22" rx="11" fill="#1d3655"/>
  <rect x="586" y="592" width="66" height="22" rx="11" fill="#17304b"/>
</svg>
